<svg height="515px" id="mapSvg" version="1.1" viewBox="0 0 1040 515" width="1040px"
     x="0px" y="0px"
     xmlns="http://www.w3.org/2000/svg" >

    <defs>
        <style type="text/css">
            text {
                font-family: Arial;
                text-rendering: geometricPrecision;
            }
        </style>
    </defs>

    <g fill="none" id="sk_borders" stroke="black" stroke-miterlimit="22.926" stroke-width="3">
        <path d="M44.883,224.691L41.5,226.85
        c0.216,3.527-5.686,9.789-6.621,14.755c-2.519,2.808-4.895,10.149-4.607,13.028c-4.103,3.382-8.997,11.156-7.197,14.826l-0.72,3.814
        c-0.36,3.959,2.663,8.421,1.871,11.876c-7.845,3.743-2.375,8.134-10.148,9.789l-3.095,4.967l-3.095,3.311
        c-3.743,4.319-1.44,11.156-2.159,14.323c0.935,8.925-1.152,2.951-2.304,6.189c-2.663,1.513-1.151,8.638,0.936,11.229l3.959,0.792
        l0.791,2.519c2.592,0,3.527,0.288,5.111,2.375c-0.288,2.159-1.584,3.815-3.239,5.254c0.864,1.944,4.39,8.493,5.83,9.789
        c1.511,1.295,5.902,2.016,4.03,3.671c-0.648,0.575-0.36,3.67,0.432,7.558c2.591,4.029,1.872,15.906,6.406,20.297
        c2.375,2.303,10.364,5.542,12.451,9.5c2.52,4.606,2.88,9.717-0.359,26.056l3.383,1.943c6.189-3.167,15.042,3.814,22.24,3.814
        c11.372,0,8.205,8.205,14.179,6.909c8.565-1.727,13.387,4.535,18.858,11.157c4.246,2.374,10.508,15.906,14.251,20.584
        c2.447,3.023,10.94,4.175,12.164,6.982c1.871,4.245,2.231,9.356,5.686,11.084c2.375,1.224,6.909,0.287,9.068,1.799
        c5.326,3.814,13.028,14.107,20.801,17.777c11.012,5.326,26.487,1.729,37.931,2.448c1.727,0.072,1.439-2.231,4.535-2.231
        c2.591,0,4.462,4.967,7.557,3.095c3.527-2.231,8.565-3.023,13.531-2.591c10.725,0.792,15.403,4.175,29.366,4.605
        c1.152,0,5.326,3.096,9.069,2.879c10.292-0.791,22.96-4.894,29.51-7.053c2.663-0.936,7.125,2.087,9.429,1.656
        c1.511-0.36,10.148-3.743,10.652-3.6c5.542,1.583,15.906,3.312,19.361,2.375c2.376-0.647,8.925-2.88,11.156-6.622
        c2.447-4.175,2.807-8.996,9.069-9.283l15.187,1.87l3.527-5.11c-9.573-4.822-8.349-9.213-12.38-12.021
        c-8.925-6.188-9.213-6.549-7.414-15.258c0.936-4.606,7.774-7.845,0.936-13.892c-1.655-1.511,6.19-1.728,7.702-2.663
        c4.03-2.663,0.504-13.675,6.693-14.682c10.509-1.584,27.711-4.031,30.158-5.687c3.599,1.943,13.099,1.583,22.312-0.145
        c5.183-0.936,13.172,3.526,18.786,4.463c13.747-16.771,33.109-3.383,38.219-11.372c2.231,0,1.295,4.39,3.527,4.39l2.446-2.735
        l1.872-0.575c3.671-4.103,4.39-9.5,4.319-14.898c1.799-2.951,2.087-6.55,1.728-10.077c2.519-3.455,16.553-14.322,20.081-13.459
        c2.303,0.504,3.239,1.079,5.542,1.439c2.016,1.872,1.584,10.077,7.414,10.077c3.311,0,4.895-3.888,8.205-3.888
        c0.936,0,5.543,3.239,5.037,4.104c-1.223,2.159-3.598,5.109-2.662,7.197c3.096,7.197,25.623-3.239,24.256,4.822
        c-0.504,2.879-1.441,4.534-1.943,6.981l4.533,1.656c5.256-2.808,18.283-15.835,22.098-15.835c4.605,0,3.383,1.654,9.357-1.224
        c0.719-0.359,2.59-5.542,4.102-6.91c5.83-5.325,8.996-1.655,8.637-12.235l3.6,0.432c2.879,1.368,5.254-0.072,8.348-0.432
        c1.369-1.728,4.822-6.118,7.055-7.485c1.223-1.44,3.527,4.174,7.27,4.174c7.342-4.39,17.994-18.929,22.168-26.918
        c2.232-4.318,3.166-13.1,5.039-17.994c2.662-7.126,8.205-7.414,11.947-13.027c1.799-2.591,0.721-5.83,0.721-8.565l0.791-4.605
        l6.189-0.217c5.758-2.015,23.969-6.981,25.479-7.485c14.539-4.606,11.156-7.485,26.848-3.526c4.533,4.822,5.613,5.182,12.309,4.318
        c6.045-0.864,4.965,9.356,7.988,9.572c6.838,0.576,15.402-5.541,22.816,1.439c2.088,1.944,2.52,5.039,5.541,5.039
        c0,0,17.49-9.933,22.17-11.3c2.375,1.007,5.9,2.375,8.637,2.375c4.678,0,3.598-9.142,11.805-8.925
        c2.014,0.071,9.859-0.505,11.516-1.943c1.654-1.368,3.525-4.751,5.182-3.959c14.539,6.765,6.404,8.853,12.523,14.539
        c1.943,1.799,12.236,3.813,12.883,5.397c1.801,4.176,6.982,13.604,11.086,15.764c1.295,3.095,0.574,6.98,2.445,9.644
        c1.584,2.303,4.104,3.527,5.83,5.687c8.279,10.725,3.959,9.717,22.17,11.804c4.461,0.504,5.326-7.917,8.133-7.917
        c13.963,0,12.236-4.104,19.217-4.319c2.951-0.07,10.221-3.022,12.451-2.375c5.254,1.513,13.172,2.16,17.059-0.72
        c4.463-3.31,6.117-8.277,4.318-14.898c-1.08-3.814,2.807-9.429,2.807-14.323c0-13.531-1.512-28.286,11.66-35.483
        c7.055-3.814,8.781-11.156,13.82-16.195c2.086-2.015,5.541-2.303,7.197-4.821c7.701-11.229-2.232-18.066,0.504-20.657
        c11.012-10.58,4.678-21.017,5.111-23.967c0.432-2.808,5.037-6.047,6.332-8.493c1.801-3.168,1.297-7.414,1.439-10.797
        c0.072-3.815,5.039-9.285,6.91-12.523c5.758-10.365,13.172-3.815,14.756-12.74c0.574-3.095-0.504-6.262-0.504-9.357
        c0-3.671,2.086-8.709,2.086-12.308l-3.527-2.375c-13.529,4.751-9.859-1.296-16.77-1.368c-15.043-0.359-14.754-12.811-20.656-12.811
        s-14.756,3.959-19.434-1.583c-1.729-2.088-3.6-6.406-6.91-6.478c-5.973-0.216-7.268-0.576-11.66-4.463
        c-3.742-0.072-18.855,1.296-16.48-6.334c0.646-2.015-0.217-3.454-0.217-5.542c0-6.837-6.551-10.148-10.006-15.186
        c-1.654-2.376-4.461-10.796-4.82-11.157c-2.088-2.303-6.91-0.575-9.646-0.575c-1.439,0-13.961-12.884-16.553-12.884
        c-2.52,1.944-7.846,10.437-8.35,10.652c-1.801,0.792-1.225-4.174-2.447-5.901c-2.375-3.311-11.014-8.134-14.826-8.134
        c-6.766,0-8.998-8.637-10.582-8.637c-3.094,3.095-14.395,2.376-20.871,6.982c-5.543-3.095-5.184,3.095-11.301,3.311
        c-1.943,0.072-17.273-12.164-27.352-12.164c-2.23,0-15.402,15.906-16.193,15.331c-2.664-1.8-5.254-8.133-9.141-8.133
        c-3.385,0-20.01,4.462-20.01,8.348c1.08,1.152,10.076,7.342,9.141,8.637c-1.654,2.376-5.973,0.936-7.918,1.944
        c-5.541,2.879-8.275,15.618-17.488,17.994c-1.871,0.503-2.592-3.383-3.887-4.319l-4.176-0.288c-1.799-2.735-1.08-10.147-7.125-6.262
        c-0.936,0.576-1.799,1.8-2.52,2.592l-3.383-1.584c-3.383,0.216,1.871-2.231,1.871-2.231l-0.936-2.591l-3.887-0.936l-2.951-4.319
        l-2.014,0.72c-1.01-2.303-3.168-3.095-2.232-5.974l-0.936-4.534c-1.654-1.871-9.645-2.231-11.73-2.015l-5.328,3.67
        c-5.902,0.864-5.037-1.655-8.852-1.655c-3.455,0-3.959,10.58-9.574,9.069c-9.139-2.447-13.674-13.891-18.928-11.588
        c-0.576,0.863-4.68,3.742-9.285,7.917c-2.736-1.943-11.301-3.095-14.539-1.368c-1.799,1.872-1.656,11.445-1.656,14.108
        c-6.045,0.431-15.115-3.959-20.873,1.223c-3.67,3.311-4.461,7.845-8.637,10.149c-5.037,2.663-7.557,9.501-7.701,14.611
        c-0.143,7.341-7.496,7.975-3.527,18.785c0.533,2.224-10.754-11.179-14.826-13.891c-1.727-1.367-5.902-0.576-7.988-0.648
        c-14.756-0.288-9.789,11.012-16.268,10.941c-12.668,0-13.604-3.239-13.604-3.239c0-2.376,3.455-9.357,4.678-11.445l4.896-3.022
        l0.504-2.304l-1.584-2.591l-2.664-2.735c0.936-2.087,0.936-5.83,0.721-8.133c-0.145-2.015-0.576-23.968-6.189-25.407
        c-10.797-2.663-6.623,11.876-13.965,3.383c-1.15,0-8.348,1.007-7.844-2.448l1.871-10.58l-1.584-2.015
        c-13.892,0.503-20.009-17.346-17.851-30.302c0.648-3.671-6.405-4.246-8.205-4.462c-2.375-0.288-3.31-6.91-5.902-8.493
        c-3.599,1.151-8.781,4.39-10.364,7.413c-1.44,2.807-6.838,5.182-7.846,6.91c-0.287,0.504-3.382,3.527,1.872,5.974
        c2.447,1.151-21.089-0.864-25.335,6.766c-2.303,4.102-2.879,13.459-6.334,16.554c-2.16,1.871-6.262,3.671-5.326,7.197
        c0.864,3.239-1.008,4.679-5.398,5.111c-3.671,0.431-11.012-4.823-13.964-2.735c-2.591,1.871-11.444,8.061-12.667,4.174
        c-0.72-2.16-0.936-26.991-2.735-27.855c-2.447-1.295-4.103-5.326-7.198-4.606c-5.47,1.295-12.595-1.655-18.209-0.144
        c-4.607,1.224-11.949,7.413-16.483,6.478c-4.391-0.864-11.372-5.614-15.691-4.103c-6.405,2.088-17.13-3.743-20.8-0.503
        c-4.895,4.246,0.144,8.349-2.016,10.796c-6.981,7.701-27.854,36.059-34.764,37.859c-6.477,1.727-16.914,5.182-23.248,7.197
        c-18.281,5.83-14.898,40.091-20.945,56.645c-1.727,4.966-8.133,13.315-13.963,13.315c-4.678,0-14.395-1.583-17.418,2.807
        c-3.095,4.39-8.925,14.539-8.925,19.865c0,12.164-12.163-0.503-17.706,4.823c-6.117,5.83-9.716,18.209-19.145,18.209
        c-16.266,0-12.524,8.637-21.232,9.357c-6.55,0.504-15.403-9.285-18.498-7.413c-3.239,1.871-13.1,9.932-15.763,6.261
        c-3.023-4.246-7.989-7.557-13.459-10.724c-2.519-0.36-9.213-4.894-12.308-4.75c-3.023-1.656-7.053,2.015-11.732,6.406
        c-2.303,2.231-9.644,4.246-10.004,6.118c-0.72,3.958-0.216,6.765-2.951,10.076C50.713,220.084,45.243,218.645,44.883,224.691z"/>
    </g>

    <g clip-rule="evenodd" fill="#323232" fill-rule="evenodd" id="Vypln_velkych_miest" stroke="#101010"
       stroke-miterlimit="22.926" stroke-width="0.4252">

        <path d="
		M798.68,237.431l6.117-3.815l0.576,1.8h2.158l2.232,3.526l2.949-0.359l2.375,5.687l-4.605,0.72l-0.576-2.52l-2.734,1.8
		c0,0,0.721,2.807,0.721,4.102s-1.225,4.751-1.225,4.751l5.326,5.183l-5.902-1.44l-1.654,1.44l-1.729-0.217l0.215-3.814
		l-3.094-2.808l-2.23,2.808l-3.742-2.951l1.15-2.807l2.592,0.432l1.08-1.871l-1.441-1.152L798.68,237.431z"/>

        <path d="
		M792.633,165.815c0,0,6.766-2.375,8.637-2.16c1.871,0.217,5.398,0.505,5.398,0.505l0.145,3.022l1.439,0.144l-0.359,4.967
		l1.15,2.231l-4.102,2.951l-0.361,2.231l-5.541-0.936v-3.31l-2.375-0.576v-1.872l-3.168,0.217l0.217-4.031L792.633,165.815z"/>

        <polygon points="
		916.791,225.482 914.631,226.921 917.51,231.961 915.135,233.976 916.574,236.351 914.99,237.646 922.188,238.941 923.268,234.552
		925.5,231.169 922.691,228.217 919.166,230.448 	"/>

        <path d="
		M803.645,80.236l3.672-0.36l0.432,4.822h4.031l-1.439,5.11c0,0-0.938-1.079-1.729-1.079h-1.295l-1.584,3.311l-1.871-0.36
		l-1.512,1.439l-1.08-7.341l2.951-0.792L803.645,80.236z"/>

        <polygon points="
		627.594,151.42 631.84,151.636 631.697,154.803 633.711,151.996 635.871,152.212 635.512,160.345 632.633,160.345 632.416,157.538
		627.09,156.242 	"/>

        <polygon points="
		679.488,189.495 676.537,190.215 674.881,188.56 673.154,189.495 672.436,187.624 673.369,187.048 673.01,185.752 674.449,185.249
			"/>

        <path d="
		M39.628,371.664l3.527-1.152l0.719,1.656l-1.295,0.719l1.295,4.823l0.936-0.72l4.247,4.246l1.079-1.151l2.232,0.576l9.068-10.869
		l3.455,2.231l-2.015,2.376l1.151,1.511l3.815-0.432v-1.655l4.822-0.72l2.376,2.591v1.872l-9.213,1.654l-1.296,2.735l1.656,0.576
		l-0.72,2.735l5.542,2.016c0,0-1.079,1.295-0.216,4.103c0.936,2.807,1.871,5.901,1.871,5.901l-4.462,3.312l-2.519-5.326l1.223-0.937
		l-0.935-2.015h-4.391l-0.575,2.519l-3.311,0.575l-0.864-2.374l-9.788,2.59l-2.952-7.053l-6.477-0.72v-2.951l2.735-0.36l0.576-2.015
		l-2.231-0.36v-2.087h-2.592l0.432-2.734l2.735-0.36L39.628,371.664z"/>

        <polygon points="
		237.272,441.983 239.288,441.407 240.583,442.487 241.734,442.344 242.455,444.143 244.327,443.999 246.125,446.734
		248.356,445.654 247.062,442.848 248.933,441.983 247.997,440.257 246.125,437.161 244.327,436.945 243.535,433.994
		240.799,435.29 239.863,434.211 237.272,435.146 238.064,437.161 236.192,437.882 235.618,440.833 	"/>

        <polygon points="
		226.188,502.443 226.188,497.116 229.715,496.901 231.226,495.101 235.257,498.988 238.064,497.836 240.223,500.068
		232.81,503.234 	"/>

        <polygon points="
		518.336,348.56 516.32,346.688 513.152,351.655 514.09,352.087 513.369,355.974 515.385,355.974 515.385,356.909 518.551,356.477
		518.768,354.462 520.207,352.806 519.127,351.511 519.99,350.072 	"/>

        <polygon points="
		503.58,147.245 504.372,145.949 505.452,146.31 506.315,144.654 507.826,145.014 507.107,147.389 511.353,148.685 511.714,147.75
		514.449,147.605 514.809,148.9 516.537,148.9 516.68,152.787 511.929,150.7 510.418,153.147 507.826,152.355 508.043,150.34 	"/>

        <polygon points="
		459.46,149.98 460.036,153.868 458.02,154.083 458.02,156.099 455.069,156.099 454.134,157.897 452.838,157.753 453.054,154.587
		451.399,154.587 451.399,149.477 456.149,149.261 456.149,150.125 	"/>

        <polygon points="
		385.109,144.078 389.212,147.389 388.061,151.419 390.436,152.788 389.859,155.522 387.917,155.378 387.917,157.177
		382.663,156.818 382.375,154.227 380.863,154.083 381.438,151.419 379.423,151.275 379.423,149.26 381.583,148.686
		382.663,145.949 	"/>

        <polygon points="
		356.679,101.613 358.55,101.973 357.255,107.515 353.008,106.939 352.288,109.171 359.27,114.137 357.255,116.008 356.103,114.353
		353.872,114.928 354.088,119.391 348.546,119.535 347.61,117.879 344.731,117.879 344.515,113.777 346.89,113.489 346.387,108.235
		349.122,109.386 349.697,106.291 348.402,105.716 349.122,103.484 350.777,104.06 352.072,102.189 355.383,104.06 	"/>
        <polygon fill="#D0D0D0" points="305.721,131.699
		308.168,132.635 307.593,135.37 302.986,133.57 304.066,131.339 	" stroke="#878787" stroke-miterlimit="22.926"
                 stroke-width="0.4252"/>

        <polygon points="
		303.202,135.585 304.786,137.96 303.49,139.472 304.065,140.408 302.41,141.704 300.754,138.393 299.314,139.688 300.61,141.488
		299.674,142.424 298.02,140.552 297.083,140.768 296.868,137.025 295.212,137.457 294.708,135.585 295.788,134.649
		298.164,134.506 298.164,135.37 300.754,135.082 300.971,137.457 	"/>

        <polygon points="
		229.931,196.476 233.386,195.18 233.026,198.707 228.635,198.923 228.276,200.723 222.517,200.363 222.517,197.268
		219.566,197.772 218.415,195.037 218.415,191.87 227.7,190.43 223.669,193.525 230.075,194.461 	"/>

        <polygon points="
		332.496,225.842 335.447,227.354 333.072,230.592 334.15,232.32 329.185,235.056 329.544,232.32 326.954,231.96 328.608,227.713
		329.761,226.563 331.416,227.138 	"/>

        <polygon points="
		416.851,280.471 421.672,279.32 422.177,282.846 424.408,283.063 425.2,288.388 422.752,287.31 422.177,289.54 418.002,288.964
		418.505,286.374 	"/>

        <polygon points="
		426.279,243.548 431.605,243.188 431.605,240.597 432.901,239.877 433.045,237.43 431.101,237.43 430.886,238.726 428.654,238.726
		428.654,237.646 426.423,237.646 426.423,236.351 424.048,236.494 423.328,234.911 420.881,235.271 420.737,238.366
		414.979,238.366 414.835,243.044 417.21,243.332 417.786,245.419 414.259,247.075 415.555,249.811 417.57,249.09 417.57,252.401
		420.161,252.617 420.881,253.553 425.847,253.337 	"/>

        <polygon points="
		280.313,266.58 281.609,264.421 285.64,266.437 285.063,269.604 287.151,272.122 286.359,273.634 283.984,270.538 277.291,270.683
		277.291,267.731 277.867,265.717 	"/>

        <polygon points="
		229.571,342.658 236.912,348.56 235.977,349.136 239.504,350.575 238.424,352.591 239.648,353.382 235.617,356.117
		234.537,354.822 231.73,356.693 231.946,359.788 230.075,360.58 228.06,360.364 227.34,358.205 226.404,358.492 220.142,350.288
		223.453,349.784 228.779,352.951 229.355,352.447 227.124,351.295 230.075,348.56 228.419,346.185 228.204,344.817
		227.628,343.666 	"/>

        <polygon points="
		316.085,379.797 321.987,376.414 323.282,377.71 324.794,377.566 327.313,379.797 324.218,381.74 325.082,385.268 323.282,385.843
		320.475,382.676 318.316,383.252 	"/>

        <polygon points="
		248.933,282.486 240.943,282.486 240.007,283.639 240.799,284.358 239.863,286.732 243.535,291.916 245.622,289.541
		247.636,290.836 249.652,287.813 247.421,284.934 	"/>

        <polygon points="
		141.113,326.823 144.856,327.184 146.08,328.839 144.641,339.707 146.08,342.083 144.28,343.233 142.049,339.923 138.738,339.923
		137.802,337.26 134.852,339.348 135.067,331.214 132.98,331.79 133.557,329.415 135.788,328.622 137.802,330.638 137.802,328.119
		140.753,328.264 	"/>

        <polygon points="
		183.723,269.963 185.954,269.963 185.81,271.834 188.545,271.834 188.185,274.713 192.432,276.009 190.057,281.552
		187.106,281.407 186.53,280.472 184.659,280.255 185.594,277.305 180.628,276.44 180.844,273.274 183.363,272.914 	"/>
        <polygon fill="#D0D0D0" points="920.676,178.771
		919.381,177.691 918.301,179.13 916.43,179.13 916.43,181.938 915.279,182.441 914.99,180.642 913.695,180.786 914.055,182.297
		912.76,182.297 912.76,184.168 911.607,185.249 918.662,188.199 919.596,185.967 914.631,183.954 	"
                 stroke="#878787" stroke-miterlimit="22.926" stroke-width="0.4252"/>
    </g>

    <g clip-rule="evenodd" fill="#323232" fill-rule="evenodd" id="Kruhy_malych_miest" stroke="#101010"
       stroke-miterlimit="22.926" stroke-width="0.4252">

<!--        <path id="Medzilaborce" d="M914.32,94.329c0-0.864,0.721-1.583,1.584-1.583s1.512,0.719,1.512,1.583c0,0.864-0.648,1.583-1.512,1.583 S914.32,95.193,914.32,94.329"/>-->
<!--        <path id="Banovce nad Bebravou" d="M262.032,244.196c0-0.864,0.72-1.512,1.583-1.512c0.864,0,1.512,0.647,1.512,1.512c0,0.863-0.648,1.583-1.512,1.583 C262.752,245.779,262.032,245.06,262.032,244.196"/>-->
<!--        <path id="Vranov nad Topľou" d="M875.475,201.941c0-0.864,0.648-1.511,1.512-1.511s1.584,0.647,1.584,1.511c0,0.864-0.721,1.583-1.584,1.583 S875.475,202.805,875.475,201.941"/>-->
<!--        <path id="Kysucké Nové Mesto" d="M362.581,90.529c0-0.864,0.72-1.583,1.583-1.583c0.864,0,1.584,0.719,1.584,1.583c0,0.864-0.72,1.511-1.584,1.511 C363.301,92.04,362.581,91.393,362.581,90.529"/>-->

        <path d="M455.789,383.036c0-0.864,0.72-1.583,1.583-1.583c0.864,0,1.584,0.719,1.584,1.583c0,0.791-0.72,1.511-1.584,1.511 C456.509,384.547,455.789,383.827,455.789,383.036"/>
        <path d="M283.625,335.028c0-0.863,0.72-1.583,1.583-1.583c0.864,0,1.512,0.72,1.512,1.583c0,0.864-0.648,1.583-1.512,1.583 C284.344,336.611,283.625,335.893,283.625,335.028"/>
        <path d="M404.009,345.611c0-0.864,0.72-1.583,1.583-1.583c0.864,0,1.512,0.719,1.512,1.583s-0.648,1.583-1.512,1.583 C404.729,347.194,404.009,346.476,404.009,345.611"/>
        <path d="M178.253,319.698c0-0.864,0.72-1.513,1.583-1.513c0.864,0,1.512,0.648,1.512,1.513c0,0.863-0.648,1.583-1.512,1.583 C178.973,321.281,178.253,320.562,178.253,319.698"/>
        <path d="M369.414,282.666c0-0.864,0.648-1.583,1.511-1.583c0.864,0,1.584,0.719,1.584,1.583c0,0.863-0.72,1.512-1.584,1.512 C370.062,284.178,369.414,283.529,369.414,282.666"/>
        <path d="M374.601,316.171c0-0.863,0.72-1.512,1.583-1.512c0.864,0,1.512,0.648,1.512,1.512c0,0.864-0.648,1.583-1.512,1.583 C375.321,317.754,374.601,317.035,374.601,316.171"/>
        <path d="M341.31,307.639c0-0.864,0.72-1.583,1.583-1.583c0.864,0,1.512,0.719,1.512,1.583s-0.648,1.583-1.512,1.583 C342.029,309.222,341.31,308.503,341.31,307.639"/>
        <path d="M371.328,210.805c0-0.864,0.72-1.583,1.583-1.583c0.864,0,1.512,0.719,1.512,1.583c0,0.864-0.648,1.583-1.512,1.583 C372.048,212.388,371.328,211.669,371.328,210.805"/>
        <path d="M185.45,230.377c0-0.864,0.72-1.584,1.584-1.584c0.863,0,1.511,0.72,1.511,1.584s-0.648,1.583-1.511,1.583 C186.17,231.96,185.45,231.241,185.45,230.377"/>
        <path d="M102.751,249.378c0-0.863,0.72-1.512,1.584-1.512c0.863,0,1.511,0.648,1.511,1.512c0,0.864-0.648,1.583-1.511,1.583 C103.471,250.961,102.751,250.242,102.751,249.378"/>
        <path d="M138.163,228.577c0-0.864,0.72-1.584,1.583-1.584c0.864,0,1.583,0.72,1.583,1.584c0,0.864-0.719,1.511-1.583,1.511 C138.883,230.088,138.163,229.441,138.163,228.577"/>
        <path d="M162.562,381.165c0-0.864,0.72-1.583,1.583-1.583c0.864,0,1.512,0.719,1.512,1.583c0,0.863-0.648,1.511-1.512,1.511 C163.282,382.676,162.562,382.028,162.562,381.165"/>
        <path d="M187.466,392.608c0-0.863,0.72-1.583,1.583-1.583c0.864,0,1.512,0.72,1.512,1.583c0,0.864-0.648,1.583-1.512,1.583 C188.186,394.191,187.466,393.473,187.466,392.608"/>
        <path d="M140.97,435.434c0-0.863,0.72-1.583,1.584-1.583c0.863,0,1.511,0.72,1.511,1.583c0,0.864-0.648,1.513-1.511,1.513 C141.689,436.946,140.97,436.298,140.97,435.434"/>
        <path d="M36.678,310.629c0-0.863,0.72-1.512,1.584-1.512c0.863,0,1.511,0.648,1.511,1.512c0,0.864-0.648,1.583-1.511,1.583 C37.397,312.212,36.678,311.493,36.678,310.629"/>
        <path d="M79.503,202.306c0-0.864,0.72-1.511,1.583-1.511c0.864,0,1.512,0.647,1.512,1.511c0,0.864-0.648,1.584-1.512,1.584 C80.223,203.89,79.503,203.17,79.503,202.306"/>
        <path d="M79.719,351.904c0-0.863,0.648-1.583,1.511-1.583c0.864,0,1.584,0.72,1.584,1.583c0,0.864-0.72,1.583-1.584,1.583 C80.367,353.487,79.719,352.769,79.719,351.904"/>
        <path d="M102.267,373.899c0-0.863,0.648-1.583,1.511-1.583c0.864,0,1.584,0.72,1.584,1.583c0,0.864-0.72,1.583-1.584,1.583 C102.915,375.482,102.267,374.764,102.267,373.899"/>
        <path d="M881.736,265.999c0-0.863,0.721-1.583,1.584-1.583c0.791,0,1.512,0.72,1.512,1.583c0,0.864-0.721,1.583-1.512,1.583 C882.457,267.582,881.736,266.863,881.736,265.999"/>
        <path d="M670.201,263.408c0-0.864,0.721-1.511,1.584-1.511s1.512,0.646,1.512,1.511s-0.648,1.584-1.512,1.584 S670.201,264.272,670.201,263.408"/>
        <path d="M574.008,338.727c0-0.792,0.648-1.512,1.514-1.512c0.861,0,1.582,0.72,1.582,1.512c0,0.864-0.721,1.583-1.582,1.583 C574.656,340.31,574.008,339.591,574.008,338.727"/>
        <path d="M595.707,257.362c0-0.864,0.648-1.583,1.512-1.583s1.584,0.719,1.584,1.583c0,0.863-0.721,1.583-1.584,1.583 S595.707,258.226,595.707,257.362"/>
        <path d="M469.249,294.003c0-0.792,0.72-1.512,1.583-1.512c0.864,0,1.584,0.72,1.584,1.512c0,0.864-0.72,1.583-1.584,1.583 C469.968,295.586,469.249,294.867,469.249,294.003"/>
        <path d="M536.221,325.346c0-0.864,0.721-1.583,1.584-1.583s1.512,0.719,1.512,1.583s-0.648,1.583-1.512,1.583 S536.221,326.21,536.221,325.346"/>
        <path d="M649.545,135.364c0-0.864,0.721-1.583,1.584-1.583s1.512,0.719,1.512,1.583c0,0.864-0.648,1.583-1.512,1.583 S649.545,136.228,649.545,135.364"/>
        <path d="M677.615,164.874c0-0.864,0.719-1.583,1.512-1.583c0.863,0,1.584,0.719,1.584,1.583c0,0.864-0.721,1.511-1.584,1.511 C678.334,166.385,677.615,165.738,677.615,164.874"/>
        <path d="M696.113,91.1c0-0.864,0.648-1.583,1.51-1.583c0.865,0,1.584,0.719,1.584,1.583c0,0.864-0.719,1.511-1.584,1.511 C696.762,92.61,696.113,91.963,696.113,91.1"/>
        <path d="M770.822,142.562c0-0.864,0.648-1.583,1.512-1.583s1.584,0.719,1.584,1.583c0,0.864-0.721,1.584-1.584,1.584 S770.822,143.426,770.822,142.562"/>
        <path d="M957.742,169.84c0-0.864,0.721-1.512,1.584-1.512s1.512,0.648,1.512,1.512c0,0.864-0.648,1.583-1.512,1.583 S957.742,170.705,957.742,169.84"/>
        <path d="M509.914,222.819c0-0.864,0.719-1.584,1.511-1.584c0.864,0,1.585,0.72,1.585,1.584c0,0.864-0.721,1.511-1.585,1.511 C510.633,224.331,509.914,223.684,509.914,222.819"/>
        <path d="M966.402,235.325c0-0.864,0.721-1.583,1.584-1.583s1.512,0.719,1.512,1.583c0,0.863-0.648,1.583-1.512,1.583 S966.402,236.188,966.402,235.325"/>
        <path d="M742.926,210.425c0-0.864,0.721-1.583,1.582-1.583c0.865,0,1.514,0.719,1.514,1.583c0,0.864-0.648,1.583-1.514,1.583 C743.646,212.008,742.926,211.289,742.926,210.425"/>
        <path d="M868.381,113.022c0-0.864,0.719-1.583,1.582-1.583s1.584,0.719,1.584,1.583c0,0.864-0.721,1.512-1.584,1.512 S868.381,113.886,868.381,113.022"/>
        <path d="M452.334,114.281c0-0.864,0.72-1.583,1.584-1.583c0.863,0,1.583,0.719,1.583,1.583c0,0.864-0.72,1.583-1.583,1.583 C453.054,115.864,452.334,115.145,452.334,114.281"/>
        <path d="M360.172,51.662c0-0.864,0.72-1.583,1.583-1.583c0.864,0,1.583,0.719,1.583,1.583c0,0.864-0.719,1.583-1.583,1.583 C360.893,53.245,360.172,52.526,360.172,51.662"/>
        <path d="M319.396,106.219c0-0.864,0.72-1.583,1.583-1.583c0.864,0,1.584,0.719,1.584,1.583c0,0.864-0.72,1.512-1.584,1.512 C320.116,107.731,319.396,107.083,319.396,106.219"/>
        <path d="M276.499,132.13c0-0.864,0.72-1.583,1.583-1.583c0.864,0,1.512,0.719,1.512,1.583c0,0.792-0.648,1.511-1.512,1.511 C277.219,133.642,276.499,132.923,276.499,132.13"/>
        <path d="M497.765,79.596c0-0.864,0.72-1.583,1.583-1.583c0.864,0,1.512,0.719,1.512,1.583s-0.648,1.583-1.512,1.583 C498.484,81.179,497.765,80.46,497.765,79.596"/>
        <path d="M485.003,60.921c0-0.864,0.72-1.583,1.583-1.583c0.864,0,1.512,0.719,1.512,1.583c0,0.864-0.648,1.583-1.512,1.583 C485.723,62.504,485.003,61.785,485.003,60.921"/>
        <path d="M261.561,169.305c0-0.864,0.72-1.583,1.583-1.583c0.864,0,1.512,0.719,1.512,1.583c0,0.864-0.648,1.583-1.512,1.583 C262.28,170.888,261.561,170.169,261.561,169.305"/>
        <path d="M852.49,83.513c0-0.864,0.719-1.583,1.582-1.583c0.865,0,1.512,0.719,1.512,1.583c0,0.864-0.646,1.583-1.512,1.583 C853.209,85.096,852.49,84.377,852.49,83.513"/>
    </g>

    <g fill="#101010" font-size="10" font-weight="700" id="Nazvy malych miest">
        <text transform="matrix(1 0 0 1 125 450)">
            <tspan x="0" y="0">Dunajská</tspan>
            <tspan x="4.202" y="10">Streda</tspan>
        </text>
        <text transform="matrix(1 0 0 1 108 377)">Senec</text>
        <text transform="matrix(1 0 0 1 62  345)">Pezinok</text>
        <text transform="matrix(1 0 0 1 22  324)">Malacky</text>
        <text transform="matrix(1 0 0 1 150 375)">Galanta</text>
        <text transform="matrix(1 0 0 1 178 407)">Šaľa</text>
        <text transform="matrix(1 0 0 1 185 323)">Hlohovec</text>
        <text transform="matrix(1 0 0 1 90 263)">Senica</text>
        <text transform="matrix(1 0 0 1 65  218)">Skalica</text>
        <text transform="matrix(1 0 0 1 126 223)">Myjava</text>
        <text transform="matrix(1 0 0 1 192 228)">
            <tspan x="0" y="0">Nové Mesto</tspan>
            <tspan x="1" y="10">nad Váhom</tspan>
        </text>
        <text transform="matrix(1 0 0 1 165 265)">Piešťany</text>
        <text transform="matrix(1 0 0 1 222 303)">Topoľčany</text>
        <!--        <text transform="matrix(1 0 0 1 235.834 243.2471)">-->
        <!--            <tspan x="0" y="0">Bánovce</tspan>-->
        <!--            <tspan x="-14.422" y="10">nad Bebravou</tspan>-->
        <!--        </text>-->
        <text transform="matrix(1 0 0 1 235 172)">Ilava</text>
        <text transform="matrix(1 0 0 1 210 490)">Komárno</text>
        <text transform="matrix(1 0 0 1 215 428)">Nové Zámky</text>
        <text transform="matrix(1 0 0 1 274 350)">
            <tspan x="0" y="0">Zlaté</tspan>
            <tspan x="-5.119" y="10">Moravce</tspan>
        </text>
        <text transform="matrix(1 0 0 1 308 398)">Levice</text>
        <text transform="matrix(1 0 0 1 311 320)">Žarnovica</text>
        <text transform="matrix(1 0 0 1 254 260)">Partizánske</text>
        <text transform="matrix(1 0 0 1 308 245)">Prievidza</text>
        <text transform="matrix(1 0 0 1 375 205)">
            <tspan x="0" y="0">Turčianske</tspan>
            <tspan x="5.368" y="10">Teplice</tspan>
        </text>
        <text transform="matrix(1 0 0 1 279 152)">
            <tspan x="0" y="0">Považská</tspan>
            <tspan x="2.196" y="10">Bystrica</tspan>
        </text>
        <text transform="matrix(1 0 0 1 257 125)">Púchov</text>
        <text transform="matrix(1 0 0 1 306 100)">Bytča</text>
        <text transform="matrix(1 0 0 1 347 64)">Čadca</text>
        <text transform="matrix(1 0 0 1 370 169)">Martin</text>
        <text transform="matrix(1 0 0 1 426 168)">Ružomberok</text>
        <text transform="matrix(1 0 0 1 460 112)">
            <tspan x="0" y="0">Dolný</tspan>
            <tspan x="-0.169" y="10">Kubín</tspan>
        </text>
        <!--        <text transform="matrix(1 0 0 1 367 88)">-->
        <!--            <tspan x="0" y="0">Kysucké Nové</tspan>-->
        <!--            <tspan x="11.116" y="10">Mesto</tspan>-->
        <!--        </text>-->
        <text transform="matrix(1 0 0 1 451 56)">Námestovo</text>
        <text transform="matrix(1 0 0 1 480 92)">Tvrdošín</text>
        <text transform="matrix(1 0 0 1 519 148)">
            <tspan x="0" y="0">Liptovský</tspan>
            <tspan x="2.476" y="10">Mikuláš</tspan>
        </text>
        <text transform="matrix(1 0 0 1 410 299)">Zvolen</text>
        <text transform="matrix(1 0 0 1 475 297)">Detva</text>
        <text transform="matrix(1 0 0 1 516 226)">Brezno</text>
        <text transform="matrix(1 0 0 1 330 276)">Žiar nad Hronom</text>
        <text transform="matrix(1 0 0 1 381 319)">
            <tspan x="0" y="0">Banská</tspan>
            <tspan x="-2.585" y="10">Štiavnica</tspan>
        </text>
        <text transform="matrix(1 0 0 1 390 358)">Krupina</text>
        <text transform="matrix(1 0 0 1 447 396)">
            <tspan x="0" y="0">Veľký</tspan>
            <tspan x="1.359" y="10">Krtíš</tspan>
        </text>
        <text transform="matrix(1 0 0 1 524 355)">Lučenec</text>
        <text transform="matrix(1 0 0 1 525 319)">Poltár</text>
        <text transform="matrix(1 0 0 1 579 270)">Revúca</text>
        <text transform="matrix(1 0 0 1 579 336)">
            <tspan x="0" y="0">Rimavská</tspan>
            <tspan x="3.834" y="10">Sobota</tspan>
        </text>
        <text transform="matrix(1 0 0 1 614 172)">Poprad</text>
        <text transform="matrix(1 0 0 1 656 138)">Kežmarok</text>
        <text transform="matrix(1 0 0 1 684 167)">Levoča</text>
        <text transform="matrix(1 0 0 1 660 203)">
            <tspan x="0" y="0">Spišská</tspan>
            <tspan x="-2.153" y="10">Nová Ves</tspan>
        </text>
        <text transform="matrix(1 0 0 1 730 223)">Gelnica</text>
        <text transform="matrix(1 0 0 1 654 257)">Rožňava</text>
        <text transform="matrix(1 0 0 1 660 94)">
            <tspan x="0" y="0">Stará</tspan>
            <tspan x="-4.561" y="10">Ľubovňa</tspan>
        </text>
        <text transform="matrix(1 0 0 1 786 104)">Bardejov</text>
        <text transform="matrix(1 0 0 1 754 137)">Sabinov</text>
        <text transform="matrix(1 0 0 1 834 78)">Svidník</text>
        <!--        <text transform="matrix(1 0 0 1 848 98)">Medzilaborce</text>-->
        <text transform="matrix(1 0 0 1 850 124)">Stropkov</text>
        <text transform="matrix(1 0 0 1 963 173)">Snina</text>
        <text transform="matrix(1 0 0 1 892 173)">Humenné</text>
        <text transform="matrix(1 0 0 1 946 246)">Sobrance</text>
        <text transform="matrix(1 0 0 1 865 279)">Trebišov</text>
        <text transform="matrix(1 0 0 1 856 236)">Michalovce</text>
        <!--        <text transform="matrix(1 0 0 1 883 208)">Vranov nad Topľou</text>-->
    </g>

    <g fill="#101010" font-size="14" font-weight="700" id="Nazvy velkych miest">
        <text transform="matrix(1 0 0 1 51 415)">Bratislava</text>
        <text transform="matrix(1 0 0 1 115 320)">Trnava</text>
        <text transform="matrix(1 0 0 1 240 201)">Trenčín</text>
        <text transform="matrix(1 0 0 1 215 378)">Nitra</text>
        <text transform="matrix(1 0 0 1 365 120)">Žilina</text>
        <text transform="matrix(1 0 0 1 440 242)">
            <tspan x="0" y="0">Banská</tspan>
            <tspan x="0" y="14">Bystrica</tspan>
        </text>
        <text transform="matrix(1 0 0 1 815 178)">Prešov</text>
        <text transform="matrix(1 0 0 1 748 266)">Košice</text>
    </g>

    <g stroke-width="1" transform="translate(225,215)">
        <rect y="2" x="2" height="28" width="82" rx="6" stroke="darkred" fill="red"/>
        <text x="7" y="21" font-size="14" font-weight="700">Duchonka</text>
        <circle cx="14" cy="45" r="6" stroke="darkred" stroke-width="1" fill="red"/>
        <polygon points="10,32 14,44 24,32" stroke="darkred" fill="darkred"/>
    </g>

    <g stroke-width="1" transform="translate(385,125)">
        <rect y="2" x="2" height="28" width="120" rx="6" stroke="darkred" fill="red"/>
        <text x="7" y="21" font-size="14" font-weight="700">Jasenská dolina</text>
        <circle cx="14" cy="45" r="6" stroke="darkred" stroke-width="1" fill="red"/>
        <polygon points="10,32 14,44 24,32" stroke="darkred" fill="darkred"/>
    </g>

    <g stroke-width="1" transform="translate(280,355)">
        <rect y="2" x="2" height="28" width="82" rx="6" stroke="darkred" fill="red"/>
        <text x="7" y="21" font-size="14" font-weight="700">Dolný Pial</text>
        <circle cx="14" cy="45" r="6" stroke="darkred" stroke-width="1" fill="red"/>
        <polygon points="10,32 14,44 24,32" stroke="darkred" fill="darkred"/>
    </g>

    <g stroke-width="1" transform="translate(310,182)">
        <rect y="2" x="2" height="28" width="61" rx="6" stroke="darkred" fill="red"/>
        <text x="7" y="21" font-size="14" font-weight="700">Bojnice</text>
        <circle cx="14" cy="45" r="6" stroke="darkred" stroke-width="1" fill="red"/>
        <polygon points="10,32 14,44 24,32" stroke="darkred" fill="darkred"/>
    </g>

    <g stroke-width="1" transform="translate(398,56)">
        <rect y="2" x="2" height="28" width="73" rx="6" stroke="darkred" fill="red"/>
        <text x="7" y="21" font-size="14" font-weight="700">Terchová</text>
        <circle cx="14" cy="45" r="6" stroke="darkred" stroke-width="1" fill="red"/>
        <polygon points="10,32 14,44 24,32" stroke="darkred" fill="darkred"/>
    </g>

</svg>
