<?xml version="1.0" standalone="no"?>
<!DOCTYPE svg PUBLIC "-//W3C//DTD SVG 20010904//EN"
 "http://www.w3.org/TR/2001/REC-SVG-20010904/DTD/svg10.dtd">
<svg version="1.0" xmlns="http://www.w3.org/2000/svg"
 width="200" height="200" viewBox="0 0 200 200"
 preserveAspectRatio="xMidYMid meet">
    <g transform="translate(62,149) scale(0.0075,-0.0075)"
       fill="#000000" stroke="none">
        <path d="M4720 12665 c-178 -44 -348 -175 -479 -370 -115 -172 -267 -547 -317
-784 -10 -46 -23 -84 -28 -86 -6 -2 -76 -10 -156 -20 -1396 -160 -2761 -670
-3383 -1265 -88 -84 -140 -149 -244 -305 -60 -91 -71 -118 -95 -244 -30 -160
-21 -231 66 -526 15 -49 33 -136 40 -192 11 -85 19 -111 46 -153 113 -175 424
-320 936 -434 645 -144 1636 -241 2769 -271 121 -3 271 -8 333 -11 l112 -6 0
-504 c0 -277 -2 -504 -3 -504 -2 0 -87 39 -188 86 -299 140 -330 154 -322 141
4 -7 121 -164 261 -350 l253 -338 -7 -750 c-4 -412 -8 -749 -9 -749 -2 0 -47
21 -101 46 -155 73 -188 86 -177 72 6 -7 71 -95 147 -195 l136 -182 0 -171 0
-170 -244 0 -243 0 4 24 c4 19 -45 93 -233 354 -131 182 -239 330 -240 329 -1
-1 18 -152 42 -336 25 -183 43 -336 40 -338 -9 -9 -150 38 -209 70 -72 38
-130 102 -147 161 -20 74 -7 138 110 551 138 485 164 627 164 880 1 198 -10
257 -65 370 -57 116 -140 190 -284 253 -481 210 -979 68 -1167 -333 -16 -36
-34 -65 -39 -65 -5 0 -31 11 -57 24 -78 39 -126 57 -115 44 38 -50 131 -175
136 -185 10 -16 -10 -400 -28 -541 -21 -162 -65 -409 -140 -792 -35 -179 -66
-345 -70 -370 -4 -25 -9 -48 -11 -52 -2 -3 -81 30 -175 73 -95 44 -173 78
-175 76 -2 -2 66 -97 152 -211 148 -198 155 -209 150 -244 -30 -187 -36 -467
-11 -561 35 -135 93 -234 208 -349 211 -214 582 -376 1011 -442 74 -11 153
-20 176 -20 23 0 55 -8 70 -17 26 -15 35 -15 85 -3 47 11 99 12 298 2 301 -15
733 -55 941 -88 l39 -6 -8 -287 c-4 -157 -8 -287 -9 -289 -2 -1 -50 20 -107
47 -57 27 -105 48 -107 46 -1 -1 45 -66 104 -144 l107 -141 -12 -252 c-38
-807 -88 -1198 -157 -1225 -33 -12 154 -172 289 -247 423 -236 1095 -259 1712
-60 213 69 439 198 514 292 25 33 31 51 40 135 29 260 -15 1252 -111 2506 -8
116 -9 158 0 172 10 15 9 17 -3 13 -12 -5 -15 4 -15 48 l0 54 198 23 c324 36
508 50 835 61 423 15 599 39 851 115 400 121 688 324 814 572 12 23 33 80 46
127 25 84 30 91 281 426 140 187 253 340 251 340 -2 0 -120 -54 -262 -120
-181 -83 -260 -116 -265 -107 -4 7 -9 41 -13 77 -11 104 -52 379 -113 754 -46
290 -54 352 -43 369 10 17 10 19 -3 14 -18 -7 -15 -19 -61 293 -45 301 -63
478 -75 715 -7 134 -16 211 -30 260 l-20 70 139 185 c76 102 137 186 135 188
-1 2 -76 -31 -166 -73 -239 -112 -206 -109 -296 -25 -58 54 -100 83 -177 120
-134 65 -228 85 -386 85 -173 -1 -322 -37 -487 -117 -282 -137 -368 -484 -273
-1102 28 -182 61 -334 150 -706 97 -403 103 -435 98 -509 -8 -107 -83 -185
-233 -239 -97 -36 -356 -82 -355 -64 1 4 18 133 39 287 21 154 37 281 36 283
-1 1 -96 -128 -211 -287 l-209 -290 -171 -1 -172 0 -6 73 c-11 125 -77 848
-85 930 l-7 79 68 91 c37 50 68 92 68 94 0 2 -32 -13 -71 -33 -39 -19 -72 -34
-74 -32 -2 2 -8 59 -14 128 -7 69 -30 306 -51 528 -22 221 -40 416 -40 432 0
24 34 76 150 230 83 110 150 202 150 204 0 2 -36 -13 -80 -35 -44 -21 -83 -39
-85 -39 -2 0 -41 -18 -85 -39 -44 -22 -80 -36 -81 -33 0 4 -8 81 -18 172 -10
91 -18 166 -17 167 1 1 226 6 501 12 2259 50 3516 225 3874 538 73 64 95 108
126 263 49 237 54 273 61 395 7 130 -3 211 -35 279 -11 23 -24 68 -29 101 -64
379 -556 759 -1447 1117 -829 334 -1978 608 -3011 719 l-112 12 -7 81 c-23
280 -169 567 -409 809 -163 164 -378 294 -556 337 -99 23 -246 26 -330 5z
m5854 -3185 c-10 -16 -20 -27 -22 -25 -5 5 26 55 34 55 3 0 -3 -13 -12 -30z"/>
    </g>
</svg>
